<svg width="18" height="14" viewBox="0 0 18 14" fill="none" xmlns="http://www.w3.org/2000/svg">
<path fill-rule="evenodd" clip-rule="evenodd" d="M16.0434 0.412935C16.8144 0.635364 17.4224 1.28647 17.6299 2.11249C18.0155 3.62124 18.0008 6.76614 18.0008 6.76614C18.0008 6.76614 18.0008 9.895 17.63 11.4039C17.4224 12.2298 16.8145 12.881 16.0434 13.1033C14.6348 13.5005 9.00034 13.5005 9.00034 13.5005C9.00034 13.5005 3.38062 13.5005 1.95729 13.0876C1.18616 12.8651 0.578315 12.2139 0.370665 11.388C0 9.895 0 6.75025 0 6.75025C0 6.75025 0 3.62124 0.370665 2.11249C0.578178 1.28662 1.20099 0.619477 1.95715 0.397195C3.36579 0 9.00021 0 9.00021 0C9.00021 0 14.6348 0 16.0434 0.412935ZM12.0004 6.75023L7.00024 9.6432V3.85727L12.0004 6.75023Z" fill="#F9F7F2"/>
</svg>
