<svg width="32" height="32" viewBox="0 0 32 32" fill="none" xmlns="http://www.w3.org/2000/svg">
<path d="M16 28.6667C14.2445 28.6667 12.5947 28.3333 11.0507 27.6667C9.50582 27 8.16671 26.1 7.03337 24.9667C5.90004 23.8333 5.00004 22.4942 4.33337 20.9493C3.66671 19.4053 3.33337 17.7556 3.33337 16C3.33337 14.2445 3.66671 12.5942 4.33337 11.0493C5.00004 9.50534 5.90004 8.16668 7.03337 7.03334C8.16671 5.90001 9.50582 5.00001 11.0507 4.33334C12.5947 3.66668 14.2445 3.33334 16 3.33334C17.7556 3.33334 19.4058 3.66668 20.9507 4.33334C22.4947 5.00001 23.8334 5.90001 24.9667 7.03334C26.1 8.16668 27 9.50534 27.6667 11.0493C28.3334 12.5942 28.6667 14.2445 28.6667 16C28.6667 17.7556 28.3334 19.4053 27.6667 20.9493C27 22.4942 26.1 23.8333 24.9667 24.9667C23.8334 26.1 22.4947 27 20.9507 27.6667C19.4058 28.3333 17.7556 28.6667 16 28.6667Z" fill="#F9F7F2"/>
<path d="M13.3334 13.2399V19.5733C13.3334 20.0621 13.5445 20.4235 13.9667 20.6573C14.3889 20.8901 14.8 20.8621 15.2 20.5733L20.1667 17.4066C20.5445 17.1844 20.7334 16.851 20.7334 16.4066C20.7334 15.9621 20.5445 15.6288 20.1667 15.4066L15.2 12.2399C14.8 11.951 14.3889 11.923 13.9667 12.1559C13.5445 12.3897 13.3334 12.751 13.3334 13.2399Z" fill="#455D58"/>
</svg>
