<svg width="100" height="58" viewBox="0 0 100 58" fill="none" xmlns="http://www.w3.org/2000/svg">
<path d="M57.9482 52.8162V51.3771H58.7693C58.9812 51.3771 59.1533 51.4433 59.2836 51.5801C59.4094 51.7148 59.4756 51.8803 59.4756 52.09C59.4756 52.2975 59.4094 52.4697 59.2725 52.6087C59.1379 52.75 58.9724 52.8162 58.7693 52.8162H57.9482ZM59.8398 52.0944C59.8398 51.792 59.725 51.5338 59.5065 51.3307C59.2946 51.1321 59.0297 51.0283 58.7163 51.0283H57.584V54.5643H57.9482V53.1649H58.3676L59.4094 54.5643H59.8972L58.8046 53.1649C59.0805 53.1495 59.3145 53.0502 59.5065 52.8692C59.725 52.6661 59.8398 52.4057 59.8398 52.0944Z" fill="#455D58"/>
<path d="M63.265 54.5643V54.2266H61.5301V52.9685H63.2142V52.6242H61.5301V51.366H63.265V51.0283H61.1659V54.5643H63.265Z" fill="#455D58"/>
<path d="M65.7777 52.9003C66.2346 53.0107 66.5458 53.1299 66.7135 53.2645C66.8261 53.3572 66.8835 53.4786 66.8835 53.6243C66.8835 53.77 66.8526 53.8892 66.7908 53.9708C66.6341 54.1894 66.3538 54.2997 65.9587 54.2997C65.4068 54.2997 65.0956 54.1121 65.0272 53.7369H64.6012C64.727 54.335 65.1795 54.633 65.9587 54.633C66.3074 54.633 66.5988 54.5602 66.8327 54.4035C67.1131 54.2225 67.2587 53.951 67.2587 53.5978C67.2587 53.3065 67.144 53.0835 66.9166 52.9268C66.7533 52.812 66.495 52.7083 66.1352 52.6156C65.771 52.5207 65.5371 52.4434 65.4289 52.386C65.1883 52.2668 65.0691 52.0991 65.0758 51.8806C65.0758 51.768 65.0956 51.6687 65.1486 51.5958C65.2832 51.3928 65.5216 51.289 65.866 51.289C66.3493 51.289 66.6253 51.4435 66.6981 51.7459H67.0932C66.963 51.236 66.5524 50.9756 65.866 50.9756C65.5525 50.9756 65.2766 51.0595 65.0493 51.2272C64.8153 51.3928 64.6961 51.6378 64.6961 51.9689C64.6961 52.4213 65.0581 52.7348 65.7777 52.9003Z" fill="#455D58"/>
<path d="M71.6523 52.786C71.6523 53.1922 71.5066 53.5365 71.2263 53.8168C70.9393 54.1016 70.5972 54.2428 70.1955 54.2428C69.796 54.2428 69.4516 54.1016 69.1713 53.8168C68.8866 53.5365 68.7453 53.1922 68.7453 52.786C68.7453 52.3909 68.8866 52.0488 69.1713 51.7619C69.4516 51.4816 69.796 51.3359 70.1955 51.3359C70.5972 51.3359 70.9393 51.4816 71.2263 51.7619C71.5066 52.0488 71.6523 52.3909 71.6523 52.786ZM72.0165 52.786C72.0165 52.5366 71.9635 52.3027 71.8708 52.0797C71.7759 51.8612 71.6456 51.6692 71.4801 51.5014C71.3146 51.3403 71.1225 51.2101 70.904 51.1174C70.6789 51.0247 70.4449 50.9717 70.1955 50.9717C69.9461 50.9717 69.7077 51.0247 69.4891 51.1174C69.2706 51.2101 69.0786 51.3403 68.9108 51.5014C68.7453 51.6692 68.6151 51.8612 68.5224 52.0797C68.4275 52.3027 68.3811 52.5366 68.3811 52.786C68.3811 53.0355 68.4275 53.2761 68.5224 53.4946C68.6151 53.7175 68.7453 53.9095 68.9108 54.0773C69.0786 54.2428 69.2706 54.3731 69.4891 54.4658C69.7077 54.5607 69.9461 54.607 70.1955 54.607C70.4449 54.607 70.6789 54.5607 70.904 54.4658C71.1225 54.3731 71.3146 54.2428 71.4801 54.0773C71.6456 53.9095 71.7759 53.7175 71.8708 53.4946C71.9635 53.2761 72.0165 53.0355 72.0165 52.786Z" fill="#455D58"/>
<path d="M73.7575 52.8162V51.3771H74.5786C74.7905 51.3771 74.9627 51.4433 75.0929 51.5801C75.2187 51.7148 75.2849 51.8803 75.2849 52.09C75.2849 52.2975 75.2187 52.4697 75.0819 52.6087C74.9472 52.75 74.7817 52.8162 74.5786 52.8162H73.7575ZM75.6491 52.0944C75.6491 51.792 75.5344 51.5338 75.3158 51.3307C75.1039 51.1321 74.8391 51.0283 74.5256 51.0283H73.3933V54.5643H73.7575V53.1649H74.1769L75.2187 54.5643H75.7065L74.6139 53.1649C74.8898 53.1495 75.1238 53.0502 75.3158 52.8692C75.5344 52.6661 75.6491 52.4057 75.6491 52.0944Z" fill="#455D58"/>
<path d="M76.6882 51.3553H77.5469V54.5536H77.9111V51.3553H78.7675V51.0176H76.6882V51.3553Z" fill="#455D58"/>
<path d="M83.152 52.7701L83.9268 53.7634C83.8738 53.8163 83.8164 53.8737 83.7546 53.9311C83.525 54.1496 83.3131 54.2534 83.1255 54.2534C82.9489 54.2534 82.7922 54.1849 82.6664 54.0437C82.5428 53.909 82.481 53.7523 82.481 53.5757C82.481 53.4301 82.5627 53.2755 82.7348 53.1034C82.8121 53.0261 82.9489 52.9158 83.152 52.7701ZM83.1189 52.194C82.9644 52.0329 82.8915 51.8806 82.8915 51.7261C82.8915 51.5738 82.9335 51.4656 83.0218 51.3928C83.1034 51.3243 83.2028 51.2934 83.3065 51.3001C83.4103 51.3045 83.5096 51.3398 83.5979 51.4126C83.6817 51.4855 83.7281 51.5892 83.7281 51.715C83.7281 51.8452 83.6707 51.9644 83.5626 52.0748C83.5096 52.1256 83.4588 52.1675 83.4014 52.2094C83.344 52.2514 83.2911 52.2867 83.2403 52.3242C83.1984 52.2823 83.1608 52.2359 83.1189 52.194ZM84.8781 53.1873L84.5801 52.9886L84.3837 53.238C84.3152 53.3219 84.249 53.4058 84.1806 53.4874L83.4522 52.5582C83.514 52.5052 83.5868 52.4544 83.6597 52.3904C83.9312 52.1675 84.0658 51.938 84.0658 51.7106C84.0658 51.4965 83.993 51.3199 83.8473 51.1787C83.7082 51.044 83.5317 50.9756 83.3131 50.9756C83.0836 50.9756 82.896 51.0484 82.7613 51.1941C82.6201 51.3398 82.5538 51.523 82.5538 51.7415C82.5538 51.96 82.6774 52.2139 82.9269 52.5008C82.8231 52.5781 82.7194 52.6509 82.6267 52.7237C82.289 52.9687 82.1212 53.2645 82.1212 53.6022C82.1212 53.898 82.2161 54.143 82.4126 54.3417C82.5053 54.4344 82.6156 54.5028 82.7392 54.5536C82.8651 54.6065 83.0107 54.6264 83.1719 54.6264C83.3374 54.6264 83.5206 54.5646 83.7325 54.4299C83.8429 54.3659 83.9775 54.2467 84.1541 54.0702L84.5404 54.5756L85.0171 54.5646L84.4101 53.77C84.6684 53.4565 84.8251 53.2601 84.8781 53.1873Z" fill="#455D58"/>
<path d="M89.6453 52.9003C90.1022 53.0107 90.4135 53.1299 90.5812 53.2645C90.6938 53.3572 90.7512 53.4786 90.7512 53.6243C90.7512 53.77 90.7203 53.8892 90.6585 53.9708C90.5018 54.1894 90.2214 54.2997 89.8263 54.2997C89.2745 54.2997 88.9633 54.1121 88.8949 53.7369H88.4689C88.5947 54.335 89.0472 54.633 89.8263 54.633C90.1751 54.633 90.4664 54.5602 90.7004 54.4035C90.9807 54.2225 91.1264 53.951 91.1264 53.5978C91.1264 53.3065 91.0116 53.0835 90.7843 52.9268C90.621 52.812 90.3627 52.7083 90.0029 52.6156C89.6387 52.5207 89.4048 52.4434 89.2966 52.386C89.056 52.2668 88.9368 52.0991 88.9434 51.8806C88.9434 51.768 88.9633 51.6687 89.0163 51.5958C89.1509 51.3928 89.3893 51.289 89.7336 51.289C90.217 51.289 90.4929 51.4435 90.5658 51.7459H90.9609C90.8306 51.236 90.4201 50.9756 89.7336 50.9756C89.4202 50.9756 89.1443 51.0595 88.9169 51.2272C88.683 51.3928 88.5638 51.6378 88.5638 51.9689C88.5638 52.4213 88.9258 52.7348 89.6453 52.9003Z" fill="#455D58"/>
<path d="M92.7696 52.8118V51.3771H93.5907C93.8026 51.3771 93.9748 51.4433 94.105 51.5735C94.2308 51.7104 94.297 51.8759 94.297 52.0834C94.297 52.2975 94.2308 52.4697 94.0939 52.6087C93.9593 52.7434 93.7938 52.8118 93.5907 52.8118H92.7696ZM94.6612 52.0944C94.6612 51.7832 94.5464 51.5272 94.3279 51.3241C94.1094 51.1276 93.8512 51.0283 93.5377 51.0283H92.4054V54.5643H92.7696V53.1649H93.5377C93.8512 53.1649 94.116 53.0678 94.3279 52.8692C94.5464 52.6617 94.6612 52.4057 94.6612 52.0944Z" fill="#455D58"/>
<path d="M96.4812 53.2651L97.1257 51.6384L97.7658 53.2651H96.4812ZM98.6752 54.5652L97.1257 50.7842L95.5718 54.5652H95.9669L96.3465 53.6028H97.9004L98.2801 54.5652H98.6752Z" fill="#455D58"/>
<mask id="mask0_616_445" style="mask-type:luminance" maskUnits="userSpaceOnUse" x="15" y="0" width="36" height="30">
<path d="M15.8167 0.237305H50.8503V29.6203H15.8167V0.237305Z" fill="white"/>
</mask>
<g mask="url(#mask0_616_445)">
<mask id="mask1_616_445" style="mask-type:luminance" maskUnits="userSpaceOnUse" x="14" y="-3" width="37" height="37">
<path d="M47.1068 -2.00781L50.5832 29.5869L17.726 33.2024L14.2473 1.60989L47.1068 -2.00781Z" fill="white"/>
</mask>
<g mask="url(#mask1_616_445)">
<mask id="mask2_616_445" style="mask-type:luminance" maskUnits="userSpaceOnUse" x="14" y="-3" width="37" height="37">
<path d="M50.5633 29.4079L47.0869 -2.18457L14.2296 1.43092L17.706 33.0256L50.5633 29.4079Z" fill="white"/>
</mask>
<g mask="url(#mask2_616_445)">
<path d="M23.0918 24.353C23.0918 24.353 23.2551 24.0264 26.2813 23.7107C29.3141 23.3951 31.0379 19.5015 30.8326 19.6449C30.6274 19.795 24.5177 22.1237 22.7673 22.404C21.0148 22.6821 18.3175 18.3294 18.7523 18.2831C19.1871 18.2345 21.9374 18.1396 24.2771 17.3141C26.6146 16.493 26.8927 15.6564 26.7845 15.162C26.6786 14.6676 21.8027 16.3716 19.9464 16.3605C18.0879 16.3495 17.3264 15.8573 16.4656 14.8839C15.6026 13.9105 15.916 9.71007 16.1654 10.0014C16.4148 10.295 18.3418 12.0034 20.5843 12.4934C22.8247 12.9834 24.2374 11.3743 22.9704 11.7915C21.7078 12.2109 18.4941 10.8998 16.7481 8.27977C16.2537 7.54034 17.6619 4.89383 18.0063 3.56506C18.3528 2.23629 18.2093 2.53207 19.1143 2.39963C20.0171 2.27161 20.9861 1.64696 21.6681 1.26951C22.3479 0.896487 23.0719 1.38871 23.7628 1.65358C24.4537 1.92066 24.9591 2.9691 25.4204 3.82111C25.8796 4.67531 26.1687 6.33076 26.3541 6.84505C26.5373 7.35713 26.9589 7.40569 27.3209 6.83622C27.6807 6.26896 27.6189 5.87165 27.3518 4.47666C27.0847 3.08609 26.875 2.92275 25.8575 1.88534C24.8399 0.84572 24.4846 0.302734 24.4846 0.302734C24.4846 0.302734 32.1239 1.94494 32.4682 2.52544C32.8148 3.10595 31.7464 5.97098 31.656 7.09889C31.5677 8.2268 31.1946 9.84692 31.3403 10.5687C31.4882 11.2883 31.6537 11.5973 32.391 11.4384C33.126 11.2772 33.3401 10.2685 33.6933 9.11853C34.0464 7.96855 34.4239 6.19391 34.4371 4.92474C34.4503 3.65335 34.3334 3.04415 34.3334 3.04415C34.3334 3.04415 38.2336 5.58471 38.4322 6.05927C38.6309 6.53603 38.3881 7.4984 38.3771 8.43207C38.3616 9.36353 37.2889 11.3699 36.5141 12.7495C35.7416 14.129 35.6621 14.2681 35.8564 14.6808C36.0506 15.098 36.2073 14.7647 37.1609 14.4557C38.1188 14.1445 38.4852 13.756 39.4917 12.7428C40.4938 11.7297 40.5622 10.615 40.5247 8.97064C40.4894 7.32844 40.0943 7.72795 40.134 7.46088C40.1716 7.1938 40.8205 7.60435 41.9661 9.22227C43.1116 10.8358 42.0764 15.4423 41.1781 18.3382C40.2797 21.2342 37.8208 19.7244 37.8208 19.7244L37.6442 19.8193C38.3417 20.4528 38.7722 20.8501 38.8295 20.9163C39.2423 21.3799 50.5148 28.9794 50.5148 28.9794L50.0402 29.465L44.2594 25.812L37.0218 20.2299C36.9843 20.7596 36.7084 24.2714 35.9226 25.1013C35.075 25.9996 33.2937 26.3285 32.0069 26.5139C30.7267 26.6971 28.7733 26.3638 26.5219 26.0239C24.2793 25.6862 23.0918 24.353 23.0918 24.353Z" fill="#455D58"/>
</g>
</g>
</g>
<path d="M23.4786 47.9041C22.5935 48.2198 21.1411 48.3787 20.256 47.9041C19.34 47.3987 19.6865 46.0081 19.8764 45.187C20.256 43.4808 20.9204 41.8055 21.5826 40.1633C21.9622 39.3113 22.3088 38.4262 22.6884 37.5411C22.7833 37.3512 23.6044 35.2985 23.5735 35.2985C23.5095 35.2985 23.4146 35.3934 23.3528 35.5192C24.4586 33.2126 26.3216 30.6544 25.8161 27.9042C25.5954 26.7365 24.7743 25.5667 23.4786 25.5998C22.3728 25.5998 21.3618 26.4209 20.6025 27.1162C19.1811 28.3787 18.0134 29.8642 16.9076 31.3806C16.7818 31.5395 16.2763 32.2966 15.7068 33.1817C15.9916 32.7072 16.369 32.2657 16.6869 31.822C15.3581 33.6872 14.1905 35.645 13.0537 37.6051C13.9366 34.6341 15.3912 31.8861 16.6229 29.074C17.0974 28.0322 17.8854 27.0831 18.3291 26.0103C18.8036 24.8405 18.5189 23.355 17.7287 22.3772C15.9916 20.2604 13.4952 23.9245 12.4533 25.0303C10.3366 27.2729 8.56636 29.9282 6.92416 32.4864C7.14489 31.7911 7.2707 31.1268 7.52453 30.4337C7.84017 29.5486 8.18671 28.6944 8.47145 27.8115C8.78709 26.8932 9.07182 25.9463 9.35656 25.0303C9.6413 24.1143 9.95693 22.8826 9.73621 21.9026C9.57728 21.2073 9.29255 20.2273 8.78709 19.6909C7.99689 18.8367 6.89105 18.9007 5.88013 19.2164C4.96411 19.5011 4.17391 19.9426 3.44773 20.5429C3.06808 20.8917 2.72154 21.2382 2.375 21.6179L2.05715 22.0593C1.86953 22.3132 1.90044 22.5648 1.80552 22.7877C1.48989 23.483 0.951315 24.0194 0.730589 24.7765C0.509863 25.6307 0.445853 26.8314 0.951315 27.5885C1.20515 27.9373 1.6157 28.1889 1.99535 27.8733C2.21607 27.6525 2.12116 27.4318 2.15206 27.178C2.18517 26.9881 2.28009 26.4827 2.4059 26.167C2.97316 24.6198 3.82737 23.0725 4.96411 21.8717C5.43867 21.3331 6.00815 20.8277 6.70123 20.6379C7.65035 20.4171 7.68125 21.1764 7.55544 21.9335L7.36561 23.1034V22.7877C6.4496 26.2002 4.67938 29.3587 3.47863 32.6454C2.88046 34.2567 2.18517 35.773 1.52079 37.3512C0.856403 38.9316 0.0993131 40.7946 0.00440083 42.5339C-0.0265008 43.1343 0.0993132 43.7346 0.573874 44.1121C1.11024 44.5557 1.93134 44.5866 2.34189 44.0172C2.65753 43.5757 2.81645 42.7855 3.00627 42.28C3.32191 41.4589 3.60665 40.6378 3.95319 39.8476C4.26883 38.9956 4.8074 38.2363 5.27975 37.4461C6.29068 35.8039 7.3016 34.1617 8.37654 32.5504C9.38746 31.0009 10.3984 29.4846 11.5042 28.0322C12.6101 26.6107 13.7159 25.1561 15.1705 24.0834C15.3912 23.9245 16.1483 23.3241 16.4639 23.4499C16.7178 23.5448 16.4639 24.0194 16.369 24.271C15.8327 25.7256 15.1374 27.2111 14.3472 28.5376C12.5151 31.6322 10.6191 35.1087 9.92382 38.6778C9.6722 39.8785 9.6722 41.0793 10.6191 41.9953C11.5991 42.9113 11.9479 42.1233 12.2635 41.2382C12.5151 40.512 13.0537 39.8785 13.4312 39.2164C13.9697 38.3313 14.4752 37.4152 15.0425 36.4992C15.3912 35.9938 15.6428 35.2985 16.0534 34.9188C16.7178 34.2567 17.1923 33.4974 17.7287 32.7381C18.8345 31.1599 19.9404 29.6435 21.3618 28.3478C21.7084 28.0322 22.4986 27.2111 23.0372 27.3369C23.6993 27.4936 22.9731 28.5376 23.004 28.9482L23.2248 28.5045C23.0372 29.074 22.8473 29.6104 22.6266 30.1489C22.5935 30.1158 22.7193 29.7384 22.7193 29.7384C22.5935 29.7053 21.9313 31.2217 21.8364 31.3806C21.3618 32.3606 20.7924 33.3384 20.4458 34.3825C20.0971 35.3294 19.7505 36.2145 19.34 37.1305L18.6447 38.7109C18.5189 39.0574 18.1392 39.8167 18.2342 40.1942C18.2651 40.1942 18.2982 40.1942 18.2982 40.1633L18.1392 40.7328C18.1701 40.6069 18.2033 40.3222 18.2033 40.2891C18.0752 40.384 18.0443 41.0175 18.0443 41.0175C17.2872 43.6706 16.9694 46.4827 18.8036 48.8511C19.6865 49.99 20.7306 50.4955 22.1211 50.1158C22.7833 49.9569 23.4146 49.6413 23.9532 49.1998C24.2688 48.9151 25.2488 48.0631 25.1208 47.5576C25.0259 47.0521 23.7942 47.8092 23.4786 47.9041ZM19.276 38.4262C19.5607 37.8567 19.8146 37.2563 20.0662 36.6559C20.256 36.1836 20.3818 35.3294 20.6975 34.9497C20.7924 34.9828 20.7924 35.0778 20.6975 35.2676C20.4767 36.4043 19.8455 37.6669 19.34 38.7418C18.9294 39.6578 18.5189 40.6069 18.2033 41.5539C18.5189 40.512 18.7705 39.468 19.276 38.4262ZM5.27975 28.9791C5.72341 27.9373 6.06995 26.8314 6.51361 25.7874C6.70123 25.3459 6.92416 24.8405 7.08088 24.335C6.70123 25.8205 6.22887 27.306 5.53359 28.7275C4.8692 30.0849 4.26883 31.4755 3.70156 32.897C4.20702 31.5704 4.71249 30.2748 5.27975 28.9791ZM15.3912 33.6563C14.5701 34.9828 13.685 36.3403 13.685 36.3403C13.7799 36.3734 14.9475 34.4134 15.3912 33.6563ZM20.192 27.6216L19.0244 28.8533C19.404 28.4118 19.7814 27.9991 20.192 27.6216ZM17.9494 42.5648C17.8545 42.5339 17.8545 42.4699 17.9494 42.3441C18.0134 42.375 18.0134 42.439 17.9494 42.5648ZM18.7087 29.2329L18.7705 29.138V29.1689C18.8345 29.0431 18.9294 28.9482 18.9603 28.9173L19.0244 28.8533L18.9603 28.9482L18.8345 29.074C18.8345 29.074 18.8654 29.074 18.8654 29.0431L18.8345 29.074L18.8036 29.138L18.7087 29.2329ZM15.453 33.5614L15.581 33.3715V33.4024L15.453 33.5614ZM15.3912 33.6563L15.453 33.5614C15.453 33.5923 15.4221 33.6232 15.3912 33.6563ZM18.9294 28.9482L18.9603 28.9173C18.9603 28.9173 18.9603 28.9482 18.9294 28.9482Z" fill="#455D58"/>
<path d="M38.4211 34.7619C38.4211 34.7928 38.4211 34.7928 38.3902 34.7619V34.7288C37.8848 33.8768 37.2204 35.0444 36.9357 35.455C36.3993 36.1834 35.8938 36.8787 35.3244 37.5409C34.852 38.1103 34.3465 38.6776 33.9669 39.278C33.9669 39.342 33.9029 39.5009 33.9029 39.5009C33.7771 39.6885 33.5872 39.8474 33.4305 40.0373C33.1458 40.322 32.8611 40.6376 32.5454 40.9224C32.0709 41.3638 29.4177 43.8602 29.069 42.2489C28.8792 41.4587 29.133 40.4787 29.2897 39.7216C29.3846 39.3111 29.4795 38.9314 29.5435 38.5209C29.6076 38.2052 29.5126 37.8896 29.6694 37.5718C29.7643 37.3841 29.7952 37.415 30.0181 37.351L30.5545 37.1612C30.901 37.0354 31.2498 36.9096 31.5654 36.7198C32.04 36.435 32.4814 36.0885 32.892 35.7397C33.872 34.9186 34.9138 33.9386 35.3244 32.707C35.5473 32.0117 35.5782 31.2546 35.1345 30.6542C34.724 30.1156 34.0309 29.8331 33.3974 29.7051C31.6912 29.3894 30.3955 30.3695 29.4177 31.6651C28.217 33.1506 27.3628 34.9826 26.9522 36.8456C26.7315 37.7616 26.6057 38.6776 26.4468 39.6267C26.29 40.5736 26.1951 41.4587 26.7006 42.3439C26.6675 42.0282 26.6057 41.7435 26.6057 41.4587C26.6057 41.2998 26.6675 41.1431 26.6675 41.0173C26.6675 40.9533 26.6057 40.7635 26.6057 40.6685C26.6057 40.3838 26.6675 40.1631 26.7315 39.8783C26.7624 39.5958 26.7315 39.3111 26.7624 39.0263C26.7955 38.7107 26.9213 38.4569 27.0471 38.1721C27.142 37.9205 27.1729 37.6998 27.2679 37.4459C27.3628 37.2252 27.4268 36.9714 27.5217 36.7198C27.5526 36.5608 27.7115 36.3732 27.8064 36.1834C27.7115 36.4659 27.5217 36.7198 27.4577 36.9714C27.3628 37.351 27.4268 37.7616 27.3959 38.1412C27.3319 38.5518 27.2061 38.9623 27.142 39.406C27.0802 39.8165 26.8904 40.194 26.8264 40.6067C26.7624 40.9842 26.6366 41.2689 26.6675 41.6486C26.6675 41.8693 26.7006 42.09 26.7315 42.2798C26.7624 42.5337 26.9213 42.6904 27.0802 42.8802C27.6166 43.5115 28.3428 44.017 29.1639 44.2399C29.7334 44.3966 30.2388 44.3657 30.7752 44.081C31.5345 43.6704 32.1967 43.0391 32.7661 42.4388C33.3025 41.8384 33.7131 41.174 34.1876 40.5427C34.6291 39.9733 35.1676 39.4369 35.6091 38.8674L37.3153 36.6557L38.2953 35.3601C38.452 35.1725 38.547 35.0135 38.4211 34.7619ZM30.5854 35.1085C30.6185 35.0444 30.6185 35.0135 30.6185 35.0135C31.0908 34.0026 31.4396 32.9277 32.1018 31.9499L32.6712 31.1906C32.797 31.0339 33.0178 30.7491 33.2407 30.6851C33.7131 30.5902 33.8411 31.4113 33.808 31.7269L33.6822 32.3913C33.6512 32.5811 33.7131 32.707 33.6822 32.8659C33.6181 33.0557 33.4614 33.1506 33.3665 33.3073L32.8301 34.0026C32.1018 34.8546 31.1857 35.583 30.1748 36.1194C30.3337 35.7728 30.4287 35.4241 30.5854 35.1085Z" fill="#455D58"/>
<path d="M48.7827 34.5081C48.3413 34.9826 48.0565 35.7728 47.71 36.3401C47.1714 37.2561 46.635 38.1412 46.0656 39.0263C44.9928 40.7325 43.9179 42.4696 42.6222 44.0169C42.0859 44.6813 40.9491 46.2926 39.8742 46.1668C39.084 46.0388 39.084 44.6813 39.084 44.0809C39.084 43.5755 39.1149 43.07 39.1789 42.5955C39.2098 42.3107 39.4637 41.3638 39.3047 41.1122L39.0531 42.0591C39.084 41.6794 39.148 41.2689 39.2429 40.8892C39.2098 40.8274 39.4946 39.9423 39.5586 39.6576C39.7153 39.0263 39.8742 38.395 40.064 37.7616C40.2207 37.1303 40.3797 36.5299 40.5695 35.9295C40.7262 35.3601 40.9491 35.0775 41.2957 34.6339C42.7172 32.8659 44.0128 30.9389 45.2136 29.0098C45.655 28.2836 45.9398 27.6523 46.4783 27.0519C47.2663 26.2308 47.8049 24.9992 48.3104 23.9883C49.1624 22.3438 50.2991 20.0704 50.1115 18.1434V17.9845L50.0784 17.9536C49.8885 16.7198 48.7518 15.2674 47.3612 15.7088C46.635 15.9318 46.0987 16.6889 45.655 17.2252L44.9288 18.2052C44.7721 18.3951 44.5492 18.8696 44.3925 19.1213L44.4234 19.0903L43.4124 20.8275L43.6663 20.2911C43.5074 20.2602 42.8121 21.6177 42.7172 21.7766C42.3706 22.377 42.055 22.9773 41.7702 23.5777C41.139 24.8403 40.5055 26.1359 40.0949 27.4934C39.6535 28.8531 39.148 30.1796 38.6735 31.5393C38.4218 32.2655 38.168 33.0226 37.9473 33.751C37.7574 34.3491 37.316 35.3292 37.4109 35.9604H37.5036C37.4109 36.1834 37.3469 36.4041 37.2829 36.6248C37.316 36.435 37.316 36.2143 37.3469 36.1503C37.188 36.3732 37.2211 37.1303 37.188 37.1943C36.7774 38.9005 36.3051 40.6067 36.177 42.3747C36.0821 44.05 36.0821 46.2617 37.4109 47.4934C38.8942 48.8508 40.6004 47.9348 41.832 46.7672C43.2866 45.3457 44.5183 43.6704 45.655 42.0282C46.6991 40.5118 47.5202 38.9005 48.4671 37.3841C48.8467 36.7506 49.2573 36.1194 49.4471 35.4241C49.5729 34.9186 49.5111 33.751 48.7827 34.5081ZM44.8339 23.1981C45.4674 21.6817 46.0987 20.1322 46.9838 18.7107C47.2045 18.3642 48.626 16.4681 48.562 18.1434V18.1743C48.5002 19.9424 47.3612 21.8075 46.6041 23.3239L45.2776 25.7872C44.8339 26.5465 44.0768 27.4934 43.823 28.3167C44.0128 27.8112 44.5823 27.0828 44.867 26.6105C45.3394 25.8203 45.7499 25.0301 46.1936 24.2399C46.9198 22.8493 47.71 21.3969 48.2463 19.8805C46.8249 24.1141 44.1717 28.0629 41.832 31.8218C42.7503 29.0429 43.6663 26.0101 44.8339 23.1981ZM43.823 20.9864C44.1386 20.386 44.7081 19.8805 45.0237 19.3111C44.3616 20.6376 43.5383 21.8384 42.843 23.1031C42.843 23.0722 42.843 23.0082 42.8761 22.9773C43.1608 22.282 43.4765 21.6486 43.823 20.9864ZM37.8524 37.3201C37.8215 37.3841 37.8215 37.415 37.8215 37.415C37.4418 38.3001 37.4109 39.5009 37.2211 40.4478C37.188 40.6685 37.1262 40.8583 37.1262 41.0791V40.9842L37.0313 41.9951C37.0931 40.8583 37.2211 39.6885 37.4418 38.5827V38.6158C37.5367 37.8896 37.6934 37.2252 37.8215 37.2252C37.8833 37.1943 37.8833 37.2892 37.8524 37.3201Z" fill="#455D58"/>
<path d="M65.7495 35.0141C65.6546 34.0032 64.6745 34.9832 64.3589 35.2679C63.8225 35.7094 63.2531 36.089 62.7167 36.5305C61.1672 37.7003 59.7148 38.932 58.2625 40.1636C58.8606 38.4574 59.7457 36.7512 60.6948 35.2039C60.8847 34.8883 61.0414 34.6036 60.9774 34.2239C60.8207 33.3719 59.6839 33.0232 58.9246 33.1512C58.2625 33.277 58.1984 33.5926 58.0726 34.0341C57.8188 34.8243 56.9028 35.5196 56.3664 36.1199C56.1435 36.3738 54.6602 38.1727 54.6271 38.1727C54.722 38.1727 54.786 38.1109 54.85 38.0778C54.1547 38.8062 53.0798 39.5633 52.2278 40.2277C51.8791 40.5124 50.8681 41.5233 50.3318 41.3335C48.8154 40.8589 51.9431 34.7934 51.8482 34.7625C51.7532 34.7294 50.7423 37.2258 50.5216 37.7953C51.0271 36.2458 51.6892 34.7294 52.3845 33.277C52.3536 33.4028 52.2587 33.6566 52.3227 33.6566C52.4154 33.6875 52.89 32.6457 52.7951 32.6126C52.7642 32.6126 52.7333 32.6457 52.7002 32.6457C52.7951 32.5177 52.954 32.4559 53.0158 32.2661C53.1107 31.8555 52.6384 31.4119 52.2896 31.286C51.5325 30.9704 50.6474 31.4119 50.2987 32.1403C50.206 32.2661 50.111 32.4868 50.047 32.5508C49.9521 32.7384 49.7932 32.8024 49.6674 32.9923C49.3208 33.5926 49.131 34.2879 48.8772 34.9192C48.7823 35.2039 47.6764 38.3625 47.8354 38.3956L47.8994 38.3316C47.8354 38.5523 47.8045 38.8062 47.7713 39.0269C47.7095 38.996 47.8045 38.8062 47.7404 38.8062C47.4248 38.7731 47.299 40.7949 47.3299 41.0179C47.3939 41.6491 47.8045 42.4393 48.4048 42.755C48.6874 42.9117 49.067 42.9757 49.4158 42.9117C49.5416 42.9117 50.1419 42.6601 49.9212 42.6601L50.111 42.596L50.047 42.6601C50.0779 42.691 51.2169 42.1855 51.4045 42.1237C52.3227 41.744 53.1107 41.0179 53.7751 40.3226L55.861 38.2367C56.3333 37.7621 56.7439 37.036 57.2493 36.6563C56.9668 37.5414 56.6821 38.4265 56.4282 39.3116C56.0817 40.3535 55.8919 41.6491 55.3864 42.596C54.9758 43.3553 53.934 44.0506 53.3336 44.651C52.4794 45.4412 51.6274 46.2292 50.8372 47.0525C49.7314 48.2201 48.7514 49.5467 47.7713 50.8424C46.7604 52.202 45.3721 54.129 46.6346 55.7712C47.4888 56.941 49.067 57.6672 50.4885 57.2876C51.7841 56.9719 52.2896 55.897 52.9231 54.8861C54.9449 51.5377 56.0508 47.6507 57.2184 43.9557C57.4082 43.4171 57.5341 42.4702 57.8497 42.0288C58.1675 41.5851 58.7988 41.2077 59.1785 40.8589C60.1254 40.0069 61.1054 39.1836 62.0832 38.3956L64.8335 36.2149C65.244 35.8992 65.8113 35.6145 65.7495 35.0141ZM52.1638 51.4118V51.4427L52.038 51.6966V51.7275C52.0049 51.7275 52.0049 51.7584 52.0049 51.7584C52.0049 51.7915 51.974 51.8533 51.974 51.8533C51.6583 52.5795 51.2787 53.3079 50.8681 54.0032C50.5216 54.5704 50.047 55.4864 49.3826 55.7072C48.1201 56.1508 48.0252 54.065 48.215 53.3697C48.6874 51.6635 49.9521 50.1802 51.0271 48.8205C52.1329 47.399 53.3005 46.1034 54.6271 44.8717C53.87 47.0525 53.1107 49.262 52.1638 51.4118ZM53.9958 50.9682C54.1216 50.5907 54.3446 50.1802 54.5653 49.8005C54.3755 50.3678 54.2165 50.9373 53.87 51.5068L53.5853 52.0122C53.7111 51.6635 53.8391 51.286 53.9958 50.9682ZM55.0708 47.5249L54.5013 48.9154C54.5653 48.6307 54.6271 48.3151 54.7551 48.1252C54.8809 47.8405 55.1326 47.335 55.0708 46.9885C55.1017 47.1452 55.1326 47.3681 55.0708 47.5249ZM54.0598 50.2111L54.1856 50.0213C54.1547 50.0853 54.1216 50.1471 54.0598 50.2111Z" fill="#455D58"/>
<path d="M75.9837 35.1399C75.891 34.6985 75.6372 34.6345 75.3216 34.7625C74.7212 35.045 74.1208 35.6785 73.5513 36.056C72.2557 36.8793 70.9622 37.5414 69.5716 38.2367C69.5716 38.2058 69.5407 38.1418 69.5076 38.0469C69.5407 38.2058 69.5076 38.2676 69.4767 38.3007C69.1611 36.9411 68.8455 35.5836 68.5916 34.193C68.7174 34.7934 69.0022 35.8043 69.2229 36.6563C68.9404 35.3298 68.5916 33.6876 68.6225 33.6876C68.5607 33.7185 68.5607 33.7825 68.5607 33.8443C68.4967 33.4668 68.4018 32.9923 68.4658 32.5817C68.4967 32.1072 68.7505 31.6966 68.9073 31.2552C68.8764 31.4759 68.8123 31.7606 68.8123 31.7606C69.0022 31.7915 69.128 30.6217 69.128 30.4959C69.0971 30.306 68.6865 29.7057 68.6865 29.8646C67.8345 29.0744 66.1592 30.8115 65.9054 31.5708C65.7178 32.0763 65.7178 32.6126 65.7487 33.1512C65.7796 33.6876 65.9385 34.1621 66.0952 34.6676C66.1901 35.045 66.0643 35.2989 66.0952 35.7094C66.1592 36.3407 66.3799 36.972 66.5058 37.5723C66.6338 38.0469 67.0443 38.996 66.9494 39.4375C66.8854 39.8789 65.9385 40.2586 65.5279 40.5124C64.9894 40.859 64.453 41.2695 63.9166 41.6801C62.9675 42.4062 61.9566 43.3245 61.5769 44.4921C61.5151 44.651 61.2944 45.3463 61.5151 45.4721C61.546 45.503 61.641 44.9667 61.6719 44.9027C61.2613 46.9885 63.3163 47.9994 65.2432 48.0303C67.424 48.0943 68.9404 46.8296 69.6975 44.8718C70.0131 44.0175 70.108 43.1346 70.0771 42.2495C70.0771 41.6492 70.0131 41.0797 69.9182 40.5124C69.8564 40.007 69.7924 40.0379 70.1389 39.7531C70.3927 39.5633 70.7724 39.4375 71.024 39.3117C72.0349 38.7731 72.951 38.1418 73.867 37.4796C74.5314 37.0051 76.1118 36.184 75.9837 35.1731V35.1399ZM63.2214 46.0085C62.4003 45.7569 63.2214 44.4612 63.5061 44.0506C63.9784 43.4172 64.6737 42.9448 65.3072 42.5012L66.2541 41.8699C66.349 41.8059 66.9494 41.3335 66.7596 41.3953L67.1392 41.1746L66.9163 41.3644C66.9803 41.3335 67.0752 41.3004 67.1392 41.2386C67.1701 41.9957 67.1701 42.755 66.9494 43.5121C66.9163 43.6401 66.3181 44.9027 66.0643 45.1565L66.2232 45.0285C65.9385 45.3772 65.6229 45.6619 65.2432 45.8827C65.2432 45.8518 65.5279 45.6619 65.4948 45.6288L64.6119 45.9776C64.1683 46.0725 63.6628 46.1674 63.2214 46.0085ZM67.201 46.9245C66.3799 47.2732 65.5897 47.43 64.7377 47.4631C66.285 47.3682 67.8963 46.6089 68.8123 45.3132C68.4658 46.0085 68.0221 46.5471 67.201 46.9245ZM69.5076 37.952C69.4767 37.7313 69.4127 37.4156 69.3178 37.0669C69.3818 37.4156 69.4458 37.7622 69.5076 37.952ZM69.9182 41.2386C69.8873 41.2077 69.8873 41.1437 69.8873 41.0797C69.8873 41.1437 69.9182 41.2077 69.9182 41.2386Z" fill="#455D58"/>
<path d="M86.2197 35.1399C86.127 34.6985 85.8732 34.6345 85.5575 34.7625C84.9571 35.045 84.3568 35.6785 83.7873 36.056C82.4916 36.8793 81.1982 37.5414 79.8076 38.2367C79.8076 38.2058 79.7767 38.1418 79.7436 38.0469C79.7767 38.2058 79.7436 38.2676 79.7127 38.3007C79.3971 36.9411 79.0814 35.5836 78.8276 34.193C78.9534 34.7934 79.2381 35.8043 79.4589 36.6563C79.1763 35.3298 78.8276 33.6876 78.8585 33.6876C78.7967 33.7185 78.7967 33.7825 78.7967 33.8443C78.7327 33.4668 78.6378 32.9923 78.7018 32.5817C78.7327 32.1072 78.9865 31.6966 79.1432 31.2552C79.1123 31.4759 79.0483 31.7606 79.0483 31.7606C79.2381 31.7915 79.3639 30.6217 79.3639 30.4959C79.333 30.306 78.9225 29.7057 78.9225 29.8646C78.0705 29.0744 76.3952 30.8115 76.1413 31.5708C75.9537 32.0763 75.9537 32.6126 75.9846 33.1512C76.0155 33.6876 76.1745 34.1621 76.3312 34.6676C76.4261 35.045 76.3003 35.2989 76.3312 35.7094C76.3952 36.3407 76.6159 36.972 76.7417 37.5723C76.8697 38.0469 77.2803 38.996 77.1854 39.4375C77.1214 39.8789 76.1745 40.2586 75.7639 40.5124C75.2253 40.859 74.689 41.2695 74.1526 41.6801C73.2035 42.4062 72.1926 43.3245 71.8129 44.4921C71.7511 44.651 71.5304 45.3463 71.7511 45.4721C71.782 45.503 71.8769 44.9667 71.9078 44.9027C71.4973 46.9885 73.5522 47.9994 75.4792 48.0303C77.6599 48.0943 79.1763 46.8296 79.9334 44.8718C80.2491 44.0175 80.344 43.1346 80.3131 42.2495C80.3131 41.6492 80.2491 41.0797 80.1541 40.5124C80.0923 40.007 80.0283 40.0379 80.3749 39.7531C80.6287 39.5633 81.0084 39.4375 81.26 39.3117C82.2709 38.7731 83.1869 38.1418 84.1029 37.4796C84.7673 37.0051 86.3477 36.184 86.2197 35.1731V35.1399ZM73.4573 46.0085C72.6362 45.7569 73.4573 44.4612 73.7421 44.0506C74.2144 43.4172 74.9097 42.9448 75.5432 42.5012L76.4901 41.8699C76.585 41.8059 77.1854 41.3335 76.9956 41.3953L77.3752 41.1746L77.1523 41.3644C77.2163 41.3335 77.3112 41.3004 77.3752 41.2386C77.4061 41.9957 77.4061 42.755 77.1854 43.5121C77.1523 43.6401 76.5541 44.9027 76.3003 45.1565L76.4592 45.0285C76.1745 45.3772 75.8588 45.6619 75.4792 45.8827C75.4792 45.8518 75.7639 45.6619 75.7308 45.6288L74.8479 45.9776C74.4042 46.0725 73.8988 46.1674 73.4573 46.0085ZM77.437 46.9245C76.6159 47.2732 75.8257 47.43 74.9737 47.4631C76.521 47.3682 78.1323 46.6089 79.0483 45.3132C78.7018 46.0085 78.2581 46.5471 77.437 46.9245ZM79.7436 37.952C79.7127 37.7313 79.6487 37.4156 79.5538 37.0669C79.6178 37.4156 79.6818 37.7622 79.7436 37.952ZM80.1541 41.2386C80.1232 41.2077 80.1232 41.1437 80.1232 41.0797C80.1232 41.1437 80.1541 41.2077 80.1541 41.2386Z" fill="#455D58"/>
<path d="M99.9961 34.9498C99.963 34.2567 99.3957 34.8549 99.2059 35.1087C98.7954 35.7091 98.4157 36.3404 98.0361 36.9408C97.1841 38.2364 96.3299 39.5321 95.352 40.7637C92.0963 44.7765 94.372 37.636 94.1182 37.7001C93.9924 37.731 93.8975 38.2055 93.8666 38.3004C94.1182 37.1615 94.5927 35.804 95.1931 34.6982C95.5397 34.0029 95.9502 33.4334 95.3189 32.6763C94.1513 31.2549 92.7916 32.5505 92.0345 33.5283C91.7167 32.3276 91.0854 30.5596 89.5381 30.5596C88.8428 30.5596 88.4323 30.9061 87.9577 31.3167C87.673 31.5065 87.4523 31.5396 87.2006 31.7603C86.7901 32.0451 86.5053 32.4865 86.2206 32.8662C85.1457 34.4443 84.3886 36.4353 84.0398 38.2673C83.8831 39.1524 83.8191 40.1325 84.0729 41.0176C84.2297 41.523 84.7991 42.6598 85.5253 42.5649C85.5562 42.5649 85.4944 42.534 85.3995 42.4699C85.841 42.5958 86.3464 42.534 86.7261 42.2801C86.757 42.3441 86.3773 42.5008 86.3773 42.5008C86.7261 43.0394 89.3174 39.9117 89.5072 39.627C89.9178 39.0575 90.2003 38.4571 90.5799 37.8568C90.8647 37.4153 91.3061 36.8458 91.624 36.3735C91.5909 36.5942 91.5909 36.879 91.5909 36.879C91.0236 38.6779 90.485 40.6379 91.2443 42.5008C91.5909 43.45 92.4451 44.3351 93.5178 44.1453C94.4669 43.9863 95.2571 43.0703 95.8244 42.3441C96.5197 41.523 97.1201 40.607 97.7204 39.6579C98.2259 38.8059 98.7005 37.9517 99.111 37.0048C99.3626 36.4044 100.058 35.6782 99.9961 34.9498ZM90.9287 35.1727C90.7698 35.3935 90.6109 35.6142 90.485 35.8349L89.6639 37.0048C89.1276 37.795 88.5581 38.5521 87.9577 39.2782C87.801 39.5012 87.0417 40.479 86.7261 40.3841C86.2515 40.2274 86.757 38.583 86.821 38.3313C86.9159 37.8899 88.589 33.0229 89.0327 32.928C88.4632 32.8971 86.6312 38.6161 86.5363 39.0906C86.7901 37.5411 87.3574 36.0247 87.9886 34.6033C88.3374 33.8771 89.1276 31.9501 90.1694 31.9501C90.7389 31.9501 90.8647 33.1178 90.9596 33.4974C90.9287 33.4334 90.644 32.5174 90.6109 32.5505C90.4541 32.6763 91.0854 34.4134 91.0854 34.6673C91.0854 34.9189 91.0854 34.9189 90.9287 35.1727ZM91.6549 36.72C91.6549 36.72 91.7498 36.2786 91.7807 36.1837L91.9396 35.9607L91.6549 36.72ZM91.1803 34.7622V34.4443C91.2752 34.5724 91.2752 34.6673 91.1803 34.7622Z" fill="#455D58"/>
<path d="M44.5376 25.459L50.3074 28.995" stroke="#455D58" stroke-width="2.0167" stroke-linecap="round"/>
</svg>
