<svg width="50" height="61" viewBox="0 0 50 61" fill="none" xmlns="http://www.w3.org/2000/svg">
<mask id="mask0_616_710" style="mask-type:luminance" maskUnits="userSpaceOnUse" x="0" y="0" width="16" height="16">
<path d="M0.898132 0.813477H15.5929V15.5082H0.898132V0.813477Z" fill="white"/>
</mask>
<g mask="url(#mask0_616_710)">
<path d="M8.2455 0.813477C4.18558 0.813477 0.898132 4.1027 0.898132 8.16084C0.898132 12.2208 4.18558 15.5082 8.2455 15.5082C12.3036 15.5082 15.5929 12.2208 15.5929 8.16084C15.5929 4.1027 12.3036 0.813477 8.2455 0.813477ZM8.2455 14.0398C4.99721 14.0398 2.36654 11.4091 2.36654 8.16084C2.36654 4.91433 4.99721 2.28366 8.2455 2.28366C11.492 2.28366 14.1227 4.91433 14.1227 8.16084C14.1227 11.4091 11.492 14.0398 8.2455 14.0398Z" fill="#455D58"/>
</g>
<mask id="mask1_616_710" style="mask-type:luminance" maskUnits="userSpaceOnUse" x="0" y="15" width="49" height="10">
<path d="M0.898132 15.4668H48.058V24.0102H0.898132V15.4668Z" fill="white"/>
</mask>
<g mask="url(#mask1_616_710)">
<path d="M47.6788 15.6749C47.1484 17.3391 45.7886 18.5885 44.1048 19.0032C42.2804 19.4589 40.3635 19.0175 38.6424 18.3411C37.7097 17.9638 36.8037 17.5224 35.8835 17.0916C34.99 16.6769 34.0965 16.2337 33.139 15.9614C32.2579 15.714 31.327 15.6357 30.446 15.8956C29.7465 16.1038 29.1253 16.4936 28.5433 16.9243C27.365 17.8072 26.2775 18.9641 24.8144 19.3414C23.3122 19.733 21.7708 19.1866 20.3861 18.6401C18.9746 18.0813 17.5258 17.4174 15.972 17.4049C14.2882 17.3924 12.9675 18.3536 11.7127 19.3557C11.0524 19.8878 10.392 20.4218 9.62667 20.8241C8.87556 21.2139 8.07283 21.488 7.24518 21.6428C5.58811 21.9561 3.8278 21.7727 2.27396 21.0982C1.89841 20.9291 1.53531 20.7333 1.18645 20.525C1.10814 20.4734 1.04406 20.4859 0.978207 20.525C0.94083 20.5642 0.901672 20.6158 0.901672 20.7066C0.901672 22.4633 0.901672 34.62 0.901672 36.3892C0.901672 36.6366 0.901672 36.884 0.901672 37.1296C0.901672 37.2346 0.992446 37.3254 1.09568 37.3254C1.51039 37.3254 1.93757 37.3254 2.3505 37.3254C3.47717 37.3254 4.61629 37.3254 5.74296 37.3254C7.42673 37.3254 9.09626 37.3254 10.78 37.3254C12.8251 37.3254 14.8702 37.3254 16.9295 37.3254C19.1686 37.3254 21.3953 37.3254 23.6361 37.3254C25.9019 37.3254 28.1802 37.3254 30.446 37.3254C32.5427 37.3254 34.6536 37.3254 36.7503 37.3254C38.5373 37.3254 40.3243 37.3254 42.0989 37.3254C43.3804 37.3254 44.6619 37.3254 45.9434 37.3254C46.5522 37.3254 47.1609 37.3378 47.7554 37.3254C47.7821 37.3254 47.8088 37.3254 47.8337 37.3254C47.9369 37.3254 48.0277 37.2346 48.0277 37.1296C48.0277 35.8943 48.0277 24.245 48.0277 23.0098C48.0277 21.0448 48.0277 19.0691 48.0277 17.1059C48.0277 16.6502 48.0277 16.1946 48.0277 15.7407C48.0544 15.4933 47.7429 15.4666 47.6788 15.6749Z" fill="#455D58"/>
</g>
<path d="M1.06079 26.7529H7.67484C9.2447 26.7529 10.4942 27.0715 11.4197 27.7069C12.3488 28.3388 12.8152 29.1878 12.8152 30.2557C12.8152 30.9873 12.6016 31.6298 12.1744 32.1851C11.7472 32.7369 11.1599 33.1178 10.4159 33.3314C11.2934 33.5076 11.9911 33.9152 12.509 34.5559C13.0305 35.1931 13.2922 35.9638 13.2922 36.8698C13.2922 38.057 12.808 39.0021 11.8398 39.7034C10.8751 40.4011 9.56864 40.7499 7.91691 40.7499H1.06079V26.7529ZM4.5992 29.4726V32.356H7.4755C7.99166 32.356 8.4046 32.2261 8.7143 31.9644C9.02222 31.7046 9.17707 31.3486 9.17707 30.8965C9.17707 30.4551 9.02222 30.1098 8.7143 29.857C8.4046 29.6007 7.99166 29.4726 7.4755 29.4726H4.5992ZM4.5992 34.9119V38.0089H7.4755C8.13939 38.0089 8.6609 37.8701 9.0418 37.5889C9.42091 37.3094 9.61136 36.9232 9.61136 36.4284C9.61136 35.9638 9.42091 35.5954 9.0418 35.3249C8.6609 35.0508 8.13939 34.9119 7.4755 34.9119H4.5992Z" fill="#455D58"/>
<path d="M25.7045 38.1727H19.5889L18.5708 40.7499H14.9113L20.9487 26.7529H24.6081L30.5031 40.7499H26.7084L25.7045 38.1727ZM24.6651 35.4744L22.6645 30.2913L20.6283 35.4744H24.6651Z" fill="#455D58"/>
<path d="M40.0775 36.229V40.7499H36.5391V36.3287L31.3632 26.7529H34.9229L38.2976 32.8544L41.6011 26.7529H45.1537L40.0775 36.229Z" fill="#455D58"/>
<path d="M6.43612 46.5391C8.52927 46.5391 10.3679 47.0588 11.9538 48.0982L10.6153 50.8749C9.87842 50.4477 9.09171 50.0988 8.25161 49.8283C7.41506 49.5542 6.71023 49.4154 6.1371 49.4154C5.11189 49.4154 4.59928 49.7553 4.59928 50.4335C4.59928 50.8749 4.85025 51.2291 5.35395 51.4943C5.86122 51.7612 6.47884 51.9909 7.20504 52.1849C7.93123 52.3806 8.65742 52.6156 9.38361 52.8897C10.1098 53.1602 10.7256 53.6016 11.2347 54.2139C11.742 54.8262 11.9965 55.6005 11.9965 56.5349C11.9965 57.8841 11.4696 58.9342 10.4159 59.6889C9.36226 60.44 8.02022 60.8137 6.39341 60.8137C5.2347 60.8137 4.08846 60.6144 2.95467 60.2157C1.82444 59.8134 0.840167 59.2652 6.10352e-05 58.5711L1.37413 55.8372C2.08075 56.4495 2.91373 56.9532 3.87309 57.3465C4.83601 57.7363 5.69035 57.9303 6.43612 57.9303C7.00925 57.9303 7.456 57.8289 7.7746 57.6242C8.09142 57.4159 8.25161 57.1116 8.25161 56.7129C8.25161 56.3284 8.06828 56.0063 7.7034 55.7446C7.33675 55.4848 6.8811 55.2925 6.33645 55.1679C5.79003 55.0398 5.19732 54.8689 4.55657 54.6553C3.91581 54.4418 3.32133 54.2104 2.77668 53.9576C2.23026 53.7013 1.77283 53.2991 1.40261 52.7473C1.03595 52.192 0.854406 51.5281 0.854406 50.7538C0.854406 49.4777 1.36345 48.4578 2.38511 47.6924C3.40498 46.9235 4.75591 46.5391 6.43612 46.5391Z" fill="#455D58"/>
<path d="M18.5469 60.6894H14.9943V46.6924H18.5469V60.6894Z" fill="#455D58"/>
<path d="M22.4104 46.6924H28.4264C30.6228 46.6924 32.4098 47.3403 33.7874 48.636C35.1686 49.9282 35.8592 51.612 35.8592 53.6909C35.8592 55.7556 35.1579 57.4393 33.7589 58.7386C32.3635 60.0397 30.5374 60.6894 28.284 60.6894H22.4104V46.6924ZM25.9631 49.5331V57.8487H28.5047C29.5958 57.8487 30.4911 57.4678 31.1888 56.7025C31.8901 55.9335 32.2425 54.9368 32.2425 53.7122C32.2425 52.4877 31.874 51.4874 31.139 50.7078C30.4074 49.9247 29.4765 49.5331 28.3481 49.5331H25.9631Z" fill="#455D58"/>
<path d="M49.7525 49.4975H42.3553V52.2741H49.0335V55.0721H42.3553V57.8914H49.9732V60.6894H38.8027V46.6924H49.7525V49.4975Z" fill="#455D58"/>
</svg>
